<svg xmlns="http://www.w3.org/2000/svg" viewBox="0 0 630 630" width="48" height="48"><rect width="630" height="630" rx="28.6" ry="28.6" style="fill:#f7df1e"/><path d="M421.4 492.19c13.42 21.79 30.8 37.84 61.61 37.84 25.87 0 42.39-12.93 42.39-30.8 0-21.49-17.04-29.09-45.61-41.72l-15.66-6.73c-45.32-19.31-75.44-43.51-75.44-94.56 0-47.07 35.91-82.78 92.14-82.78 40.05 0 68.88 13.96 89.54 50.56l-48.94 31.4c-10.77-19.31-22.36-26.91-40.6-26.91-18.51 0-30.24 11.73-30.24 26.91 0 18.83 11.73 26.44 38.82 38.02l15.66 6.72c53.29 22.82 83.41 46.54 83.41 99.6 0 57.11-44.88 88.23-105.1 88.23-58.86 0-96.84-28.07-115.35-64.88zm-209.87 5.61c8.59 15.31 16.4 28.27 35.08 28.27 17.95 0 29.25-7.03 29.25-34.44V284.95h58.92v207.9c0 60.8-35.65 88.23-87.68 88.23-47.07 0-74.35-24.23-88.23-53.29z"/></svg>
